<svg width="19" height="18" viewBox="0 0 19 18" fill="none" xmlns="http://www.w3.org/2000/svg">
<path d="M17.6186 15.8499L12.4246 10.656C13.2306 9.61396 13.6666 8.33997 13.6666 6.99997C13.6666 5.39598 13.0406 3.89199 11.9086 2.75799C10.7766 1.624 9.26862 1 7.66663 1C6.06464 1 4.55664 1.626 3.42465 2.75799C2.29065 3.88999 1.66666 5.39598 1.66666 6.99997C1.66666 8.60197 2.29265 10.11 3.42465 11.242C4.55664 12.376 6.06264 12.9999 7.66663 12.9999C9.00662 12.9999 10.2786 12.564 11.3206 11.76L16.5146 16.9519C16.5298 16.9672 16.5479 16.9793 16.5678 16.9875C16.5877 16.9958 16.609 17 16.6306 17C16.6521 17 16.6735 16.9958 16.6934 16.9875C16.7133 16.9793 16.7314 16.9672 16.7466 16.9519L17.6186 16.0819C17.6338 16.0667 17.6459 16.0486 17.6542 16.0287C17.6624 16.0088 17.6667 15.9875 17.6667 15.9659C17.6667 15.9444 17.6624 15.9231 17.6542 15.9032C17.6459 15.8833 17.6338 15.8652 17.6186 15.8499ZM10.8346 10.168C9.98662 11.014 8.86263 11.48 7.66663 11.48C6.47064 11.48 5.34664 11.014 4.49864 10.168C3.65265 9.31996 3.18665 8.19597 3.18665 6.99997C3.18665 5.80398 3.65265 4.67798 4.49864 3.83199C5.34664 2.98599 6.47064 2.51999 7.66663 2.51999C8.86263 2.51999 9.98862 2.98399 10.8346 3.83199C11.6806 4.67998 12.1466 5.80398 12.1466 6.99997C12.1466 8.19597 11.6806 9.32196 10.8346 10.168Z" fill="#828282"/>
</svg>
