<?xml version="1.0" encoding="utf-8"?>
<!-- Generator: Adobe Illustrator 24.1.0, SVG Export Plug-In . SVG Version: 6.00 Build 0)  -->
<svg version="1.1" id="Слой_1" xmlns="http://www.w3.org/2000/svg" xmlns:xlink="http://www.w3.org/1999/xlink" x="0px" y="0px"
	 viewBox="0 0 110 42" style="enable-background:new 0 0 110 42;" xml:space="preserve">
<style type="text/css">
	.st0{fill:#7820E8;}
	.st1{fill:url(#SVGID_1_);}
	.st2{fill:#FFFFFF;}
</style>
<g>
	<path class="st0" d="M35,32.6c-0.6,0.5-1.3,0.8-2.1,1c-0.8,0.2-1.6,0.3-2.6,0.3c-2.3,0-4-0.6-5.3-1.8c-1.2-1.2-1.9-2.9-1.9-5.2v-10
		h-3.4v-3.9h3.4V8.5h4.8v4.7h5.5v3.9h-5.5v9.8c0,1,0.2,1.8,0.7,2.3c0.5,0.5,1.2,0.8,2.1,0.8c1.1,0,2-0.3,2.7-0.9L35,32.6z"/>
	<path class="st0" d="M47.5,34c-2.1,0-4-0.5-5.6-1.4c-1.7-0.9-3-2.2-3.9-3.8c-0.9-1.6-1.4-3.5-1.4-5.5s0.5-3.9,1.4-5.5
		c1-1.6,2.3-2.9,3.9-3.8c1.7-0.9,3.6-1.4,5.6-1.4c2.1,0,4,0.5,5.7,1.4c1.7,0.9,3,2.2,3.9,3.8c1,1.6,1.4,3.4,1.4,5.5
		s-0.5,3.9-1.4,5.5c-0.9,1.6-2.2,2.9-3.9,3.8C51.5,33.5,49.7,34,47.5,34z M47.5,29.9c1.8,0,3.2-0.6,4.4-1.8c1.2-1.2,1.7-2.7,1.7-4.7
		s-0.6-3.5-1.7-4.7c-1.2-1.2-2.6-1.8-4.4-1.8c-1.8,0-3.2,0.6-4.4,1.8c-1.1,1.2-1.7,2.7-1.7,4.7s0.6,3.5,1.7,4.7
		C44.3,29.3,45.8,29.9,47.5,29.9z"/>
	<path class="st0" d="M83.4,5v28.7h-4.6v-2.7c-0.8,1-1.8,1.7-3,2.2c-1.2,0.5-2.4,0.7-3.9,0.7c-2,0-3.8-0.4-5.4-1.3
		c-1.6-0.9-2.8-2.1-3.7-3.7c-0.9-1.6-1.4-3.5-1.4-5.6s0.5-3.9,1.4-5.5c0.9-1.6,2.1-2.8,3.7-3.7c1.6-0.9,3.4-1.3,5.4-1.3
		c1.4,0,2.6,0.2,3.7,0.7s2.1,1.2,2.9,2.1V5H83.4z M72.5,29.9c1.2,0,2.2-0.3,3.1-0.8c0.9-0.5,1.7-1.3,2.2-2.3c0.5-1,0.8-2.1,0.8-3.4
		c0-1.3-0.3-2.4-0.8-3.4c-0.5-1-1.3-1.7-2.2-2.2c-0.9-0.5-2-0.8-3.1-0.8c-1.2,0-2.2,0.3-3.1,0.8c-0.9,0.5-1.7,1.3-2.2,2.2
		c-0.5,1-0.8,2.1-0.8,3.4c0,1.3,0.3,2.4,0.8,3.4c0.5,1,1.3,1.7,2.2,2.3C70.3,29.6,71.3,29.9,72.5,29.9z"/>
	<path class="st0" d="M99,34c-2.1,0-4-0.5-5.6-1.4c-1.7-0.9-3-2.2-3.9-3.8c-0.9-1.6-1.4-3.5-1.4-5.5s0.5-3.9,1.4-5.5
		c1-1.6,2.3-2.9,3.9-3.8c1.7-0.9,3.6-1.4,5.6-1.4c2.1,0,4,0.5,5.7,1.4c1.7,0.9,3,2.2,3.9,3.8c1,1.6,1.4,3.4,1.4,5.5
		s-0.5,3.9-1.4,5.5c-0.9,1.6-2.2,2.9-3.9,3.8C103,33.5,101.1,34,99,34z M99,29.9c1.8,0,3.2-0.6,4.4-1.8c1.2-1.2,1.7-2.7,1.7-4.7
		s-0.6-3.5-1.7-4.7c-1.2-1.2-2.6-1.8-4.4-1.8s-3.2,0.6-4.4,1.8c-1.1,1.2-1.7,2.7-1.7,4.7s0.6,3.5,1.7,4.7
		C95.7,29.3,97.2,29.9,99,29.9z"/>
	<g>
		
			<linearGradient id="SVGID_1_" gradientUnits="userSpaceOnUse" x1="11.2362" y1="26.1073" x2="40.5113" y2="46.2049" gradientTransform="matrix(1 0 0 -1 0 54)">
			<stop  offset="0" style="stop-color:#7A1DC4"/>
			<stop  offset="1" style="stop-color:#FF579E"/>
		</linearGradient>
		<ellipse class="st1" cx="19.8" cy="22" rx="19.8" ry="20"/>
	</g>
	<path class="st2" d="M31.1,38.4c0.3,0.7,0.2,1.6-0.5,2c-0.6,0.4-1.3,0.7-2.1,1C27.3,41.8,26,42,24.7,42c-3.1,0-5.5-0.9-7.2-2.6
		c-1.7-1.7-2.5-4.2-2.5-7.3V14.4c0-1.6-1.3-3-3-3h-1c-1.1,0-2-0.9-2-2c0-1.1,0.9-2,2-2h1c1.6,0,3-1.3,3-3V2.3c0-1.2,1-2.3,2.3-2.3
		c1.2,0,2.3,1,2.3,2.3v1.5c0,2.1,1.7,3.7,3.7,3.7h4.5c1.1,0,2,0.9,2,2c0,1.1-0.9,2-2,2h-3.1c-2.8,0-5.1,2.3-5.1,5.1v15.3
		c0,2,0.5,3.6,1.5,4.7c1,1,2.5,1.6,4.3,1.6c0.9,0,1.8-0.2,2.7-0.5c0.1,0,0.2-0.1,0.3-0.1C29.2,37.1,30.6,37.3,31.1,38.4z"/>
</g>
</svg>
