<svg width="119" height="58" viewBox="0 0 119 58" fill="none" xmlns="http://www.w3.org/2000/svg">
<path d="M43.9703 35.6061C43.4034 36.0708 42.7077 36.4192 41.8832 36.6515C41.0845 36.8838 40.2342 37 39.3324 37C37.065 37 35.3129 36.4063 34.0761 35.219C32.8393 34.0316 32.2209 32.3022 32.2209 30.0307V20.0801H28.8198V16.2083H32.2209V11.4846H37.0521V16.2083H42.5789V20.0801H37.0521V29.9146C37.0521 30.9212 37.2969 31.6956 37.7864 32.2377C38.276 32.7539 38.9845 33.012 39.9121 33.012C40.9943 33.012 41.8961 32.7281 42.6176 32.1602L43.9703 35.6061Z" fill="#7820E8"/>
<path d="M56.5409 37C54.4539 37 52.5729 36.5483 50.8981 35.6449C49.2233 34.7414 47.9093 33.4895 46.9559 31.8892C46.0283 30.263 45.5646 28.4304 45.5646 26.3912C45.5646 24.352 46.0283 22.5323 46.9559 20.9319C47.9093 19.3316 49.2233 18.0797 50.8981 17.1762C52.5729 16.2728 54.4539 15.8211 56.5409 15.8211C58.6537 15.8211 60.5475 16.2728 62.2223 17.1762C63.8971 18.0797 65.1983 19.3316 66.1259 20.9319C67.0792 22.5323 67.5559 24.352 67.5559 26.3912C67.5559 28.4304 67.0792 30.263 66.1259 31.8892C65.1983 33.4895 63.8971 34.7414 62.2223 35.6449C60.5475 36.5483 58.6537 37 56.5409 37ZM56.5409 32.8571C58.3188 32.8571 59.7874 32.2635 60.9469 31.0761C62.1064 29.8887 62.6861 28.3271 62.6861 26.3912C62.6861 24.4553 62.1064 22.8936 60.9469 21.7063C59.7874 20.5189 58.3188 19.9252 56.5409 19.9252C54.7631 19.9252 53.2944 20.5189 52.1349 21.7063C51.0012 22.8936 50.4343 24.4553 50.4343 26.3912C50.4343 28.3271 51.0012 29.8887 52.1349 31.0761C53.2944 32.2635 54.7631 32.8571 56.5409 32.8571Z" fill="#7820E8"/>
<path d="M92.3892 8V36.729H87.7513V34.0574C86.9525 35.0383 85.9605 35.7739 84.7753 36.2644C83.6158 36.7548 82.3275 37 80.9104 37C78.9264 37 77.1357 36.5612 75.5382 35.6836C73.9664 34.806 72.7297 33.567 71.8278 31.9666C70.926 30.3405 70.4751 28.482 70.4751 26.3912C70.4751 24.3004 70.926 22.4548 71.8278 20.8545C72.7297 19.2541 73.9664 18.0151 75.5382 17.1375C77.1357 16.2599 78.9264 15.8211 80.9104 15.8211C82.276 15.8211 83.5257 16.0534 84.6594 16.518C85.7931 16.9826 86.7593 17.6796 87.558 18.6088V8H92.3892ZM81.4901 32.8571C82.6496 32.8571 83.6931 32.599 84.6207 32.0828C85.5483 31.5407 86.2826 30.7793 86.8237 29.7984C87.3648 28.8175 87.6353 27.6818 87.6353 26.3912C87.6353 25.1006 87.3648 23.9648 86.8237 22.984C86.2826 22.0031 85.5483 21.2546 84.6207 20.7383C83.6931 20.1963 82.6496 19.9252 81.4901 19.9252C80.3307 19.9252 79.2871 20.1963 78.3595 20.7383C77.432 21.2546 76.6976 22.0031 76.1565 22.984C75.6155 23.9648 75.3449 25.1006 75.3449 26.3912C75.3449 27.6818 75.6155 28.8175 76.1565 29.7984C76.6976 30.7793 77.432 31.5407 78.3595 32.0828C79.2871 32.599 80.3307 32.8571 81.4901 32.8571Z" fill="#7820E8"/>
<path d="M107.985 37C105.898 37 104.017 36.5483 102.342 35.6449C100.667 34.7414 99.3534 33.4895 98.4 31.8892C97.4724 30.263 97.0087 28.4304 97.0087 26.3912C97.0087 24.352 97.4724 22.5323 98.4 20.9319C99.3534 19.3316 100.667 18.0797 102.342 17.1762C104.017 16.2728 105.898 15.8211 107.985 15.8211C110.098 15.8211 111.992 16.2728 113.666 17.1762C115.341 18.0797 116.642 19.3316 117.57 20.9319C118.523 22.5323 119 24.352 119 26.3912C119 28.4304 118.523 30.263 117.57 31.8892C116.642 33.4895 115.341 34.7414 113.666 35.6449C111.992 36.5483 110.098 37 107.985 37ZM107.985 32.8571C109.763 32.8571 111.232 32.2635 112.391 31.0761C113.55 29.8887 114.13 28.3271 114.13 26.3912C114.13 24.4553 113.55 22.8936 112.391 21.7063C111.232 20.5189 109.763 19.9252 107.985 19.9252C106.207 19.9252 104.738 20.5189 103.579 21.7063C102.445 22.8936 101.878 24.4553 101.878 26.3912C101.878 28.3271 102.445 29.8887 103.579 31.0761C104.738 32.2635 106.207 32.8571 107.985 32.8571Z" fill="#7820E8"/>
<g filter="url(#filter0_d_39_25)">
<ellipse cx="28.8198" cy="25" rx="19.8198" ry="20" fill="url(#paint0_linear_39_25)"/>
</g>
<path d="M40.1441 41.4087C40.4815 42.1134 40.3287 42.9727 39.6728 43.3972C39.0439 43.8044 38.332 44.1436 37.5373 44.4149C36.3098 44.8049 35.0188 45 33.6644 45C30.5322 45 28.1196 44.1331 26.4266 42.3994C24.7335 40.6656 23.887 38.2167 23.887 35.0526V17.3617C23.887 15.7137 22.551 14.3777 20.903 14.3777H19.8694C18.7922 14.3777 17.9189 13.5045 17.9189 12.4272C17.9189 11.35 18.7922 10.4768 19.8694 10.4768H20.903C22.551 10.4768 23.887 9.14079 23.887 7.49276V5.25388C23.887 4.0091 24.8961 3 26.1409 3C27.3856 3 28.3947 4.0091 28.3947 5.25388V6.73839C28.3947 8.80304 30.0685 10.4768 32.1331 10.4768H36.6026C37.6798 10.4768 38.5531 11.35 38.5531 12.4272C38.5531 13.5045 37.6798 14.3777 36.6026 14.3777H33.4739C30.6688 14.3777 28.3947 16.6517 28.3947 19.4569V34.7926C28.3947 36.8297 28.8815 38.3901 29.855 39.4737C30.8708 40.5139 32.3099 41.0341 34.1723 41.0341C35.1035 41.0341 35.9923 40.8824 36.8389 40.5789C36.9297 40.5479 37.0193 40.5156 37.1075 40.4818C38.2124 40.0593 39.6334 40.3417 40.1441 41.4087Z" fill="white"/>
<defs>
<filter id="filter0_d_39_25" x="0" y="0" width="57.6396" height="58" filterUnits="userSpaceOnUse" color-interpolation-filters="sRGB">
<feFlood flood-opacity="0" result="BackgroundImageFix"/>
<feColorMatrix in="SourceAlpha" type="matrix" values="0 0 0 0 0 0 0 0 0 0 0 0 0 0 0 0 0 0 127 0" result="hardAlpha"/>
<feMorphology radius="3" operator="dilate" in="SourceAlpha" result="effect1_dropShadow_39_25"/>
<feOffset dy="4"/>
<feGaussianBlur stdDeviation="3"/>
<feColorMatrix type="matrix" values="0 0 0 0 0.176471 0 0 0 0 0.326588 0 0 0 0 0.858824 0 0 0 0.1 0"/>
<feBlend mode="normal" in2="BackgroundImageFix" result="effect1_dropShadow_39_25"/>
<feBlend mode="normal" in="SourceGraphic" in2="effect1_dropShadow_39_25" result="shape"/>
</filter>
<linearGradient id="paint0_linear_39_25" x1="29.9209" y1="45" x2="59.196" y2="24.9024" gradientUnits="userSpaceOnUse">
<stop stop-color="#7A1DC4"/>
<stop offset="1" stop-color="#FF579E"/>
</linearGradient>
</defs>
</svg>
